<svg width="48" height="20" viewBox="0 0 48 20" fill="none" xmlns="http://www.w3.org/2000/svg">
<path d="M8.57143 9.97403C11.2768 9.97403 13.4694 7.74156 13.4694 4.98701C13.4694 2.23247 11.2768 0 8.57143 0C5.86607 0 3.67347 2.23247 3.67347 4.98701C3.67347 7.74156 5.86607 9.97403 8.57143 9.97403ZM12 11.2208H11.361C10.5115 11.6182 9.56633 11.8442 8.57143 11.8442C7.57653 11.8442 6.6352 11.6182 5.78189 11.2208H5.14286C2.30357 11.2208 0 13.5662 0 16.4571V18.0779C0 19.1104 0.822704 19.9481 1.83673 19.9481H15.3061C16.3202 19.9481 17.1429 19.1104 17.1429 18.0779V16.4571C17.1429 13.5662 14.8393 11.2208 12 11.2208Z" fill="white"/>
<path d="M46.7251 7.19191H33.3536C33.2172 7.19191 33.0864 7.24712 32.99 7.34539C32.8935 7.44365 32.8394 7.57693 32.8394 7.7159V8.76388C32.8394 8.90285 32.8935 9.03613 32.99 9.1344C33.0864 9.23267 33.2172 9.28787 33.3536 9.28787H46.7251C46.8615 9.28787 46.9923 9.23267 47.0887 9.1344C47.1852 9.03613 47.2394 8.90285 47.2394 8.76388V7.7159C47.2394 7.57693 47.1852 7.44365 47.0887 7.34539C46.9923 7.24712 46.8615 7.19191 46.7251 7.19191ZM46.7251 15.5757H33.3536C33.2172 15.5757 33.0864 15.6309 32.99 15.7292C32.8935 15.8275 32.8394 15.9608 32.8394 16.0997V17.1477C32.8394 17.2867 32.8935 17.42 32.99 17.5182C33.0864 17.6165 33.2172 17.6717 33.3536 17.6717H46.7251C46.8615 17.6717 46.9923 17.6165 47.0887 17.5182C47.1852 17.42 47.2394 17.2867 47.2394 17.1477V16.0997C47.2394 15.9608 47.1852 15.8275 47.0887 15.7292C46.9923 15.6309 46.8615 15.5757 46.7251 15.5757ZM36.314 5.09596H43.765C43.8161 5.09596 43.8667 5.08571 43.9138 5.06579C43.961 5.04587 44.0038 5.01667 44.0399 4.97987C44.076 4.94307 44.1046 4.89939 44.1242 4.85131C44.1437 4.80324 44.1537 4.75171 44.1536 4.69969V3.39594C44.1536 3.34394 44.1436 3.29246 44.1241 3.24442C44.1045 3.19638 44.0759 3.15273 44.0398 3.11597C44.0037 3.0792 43.9609 3.05004 43.9137 3.03014C43.8666 3.01024 43.8161 3 43.765 3H36.314C36.2629 2.99996 36.2124 3.01017 36.1652 3.03005C36.118 3.04992 36.0751 3.07908 36.039 3.11585C36.0029 3.15262 35.9742 3.19629 35.9547 3.24434C35.9351 3.2924 35.9251 3.34392 35.9251 3.39594V4.69969C35.9251 4.80479 35.966 4.90558 36.039 4.97989C36.1119 5.05421 36.2108 5.09596 36.314 5.09596ZM43.765 13.4798C43.8161 13.4798 43.8667 13.4695 43.9138 13.4496C43.961 13.4297 44.0038 13.4005 44.0399 13.3637C44.076 13.3269 44.1046 13.2832 44.1242 13.2351C44.1437 13.1871 44.1537 13.1355 44.1536 13.0835V11.7798C44.1536 11.6748 44.1127 11.574 44.0398 11.4998C43.9669 11.4255 43.8681 11.3838 43.765 11.3838H36.314C36.2629 11.3838 36.2124 11.394 36.1652 11.4139C36.118 11.4338 36.0751 11.4629 36.039 11.4997C36.0029 11.5365 35.9742 11.5801 35.9547 11.6282C35.9351 11.6762 35.9251 11.7277 35.9251 11.7798V13.0835C35.9251 13.1356 35.9351 13.1871 35.9547 13.2352C35.9742 13.2832 36.0029 13.3269 36.039 13.3637C36.0751 13.4005 36.118 13.4297 36.1652 13.4496C36.2123 13.4695 36.2629 13.4798 36.314 13.4798H43.765Z" fill="white"/>
</svg>
