<svg width="30" height="30" viewBox="0 0 30 30" fill="none" xmlns="http://www.w3.org/2000/svg">
<circle cx="15" cy="15" r="15" transform="rotate(-180 15 15)" fill="#E6E6E6"/>
<path d="M21.714 14.7839L13.0461 8.78311C12.9461 8.71389 12.8291 8.67336 12.7076 8.6659C12.5862 8.65845 12.4651 8.68434 12.3573 8.74079C12.2496 8.79725 12.1593 8.8821 12.0963 8.98616C12.0334 9.09023 12 9.20954 12 9.33118L12 21.3328C11.9999 21.4545 12.0331 21.5739 12.0961 21.6781C12.159 21.7822 12.2493 21.8672 12.357 21.9237C12.4648 21.9802 12.586 22.0062 12.7075 21.9988C12.8289 21.9913 12.9461 21.9508 13.0461 21.8815L21.714 15.8807C21.8023 15.8191 21.8744 15.7371 21.9242 15.6416C21.974 15.5461 22 15.44 22 15.3323C22 15.2246 21.974 15.1185 21.9242 15.0231C21.8744 14.9276 21.8023 14.8455 21.714 14.7839Z" fill="#2F861B"/>
</svg>
