<svg width="18" height="22" viewBox="0 0 18 22" fill="none" xmlns="http://www.w3.org/2000/svg">
<path d="M8.59376 0C6.31538 0.00268787 4.13109 0.908962 2.52003 2.52002C0.90897 4.13108 0.00269701 6.31537 9.14288e-06 8.59375C-0.00271968 10.4556 0.605463 12.267 1.73126 13.75C1.73126 13.75 1.96563 14.0586 2.00392 14.1031L8.59376 21.875L15.1867 14.0992C15.2211 14.0578 15.4563 13.75 15.4563 13.75L15.457 13.7477C16.5823 12.2653 17.1902 10.4548 17.1875 8.59375C17.1848 6.31537 16.2785 4.13108 14.6675 2.52002C13.0564 0.908962 10.8721 0.00268787 8.59376 0ZM8.59376 11.7188C7.97569 11.7188 7.37151 11.5355 6.8576 11.1921C6.3437 10.8487 5.94316 10.3607 5.70663 9.78964C5.47011 9.21862 5.40823 8.59028 5.5288 7.98409C5.64938 7.3779 5.94701 6.82108 6.38405 6.38404C6.82109 5.947 7.37791 5.64937 7.9841 5.5288C8.59029 5.40822 9.21862 5.4701 9.78964 5.70663C10.3607 5.94315 10.8487 6.34369 11.1921 6.85759C11.5355 7.3715 11.7188 7.97568 11.7188 8.59375C11.7177 9.42223 11.3882 10.2165 10.8023 10.8023C10.2165 11.3881 9.42224 11.7177 8.59376 11.7188Z" fill="white"/>
</svg>
