<svg width="9" height="15" viewBox="0 0 9 15" fill="none" xmlns="http://www.w3.org/2000/svg">
<path d="M0.342259 12.6833L0.342258 14.0745C0.342258 14.1951 0.480643 14.2617 0.574098 14.1879L8.67589 7.85124C8.74473 7.79764 8.80043 7.729 8.83874 7.65056C8.87706 7.57212 8.89697 7.48595 8.89697 7.39863C8.89697 7.31131 8.87706 7.22514 8.83874 7.1467C8.80043 7.06826 8.74473 6.99962 8.67589 6.94601L0.574099 0.60939C0.478847 0.535603 0.34226 0.602191 0.34226 0.722768L0.342259 2.11391C0.342259 2.20209 0.383595 2.28668 0.451888 2.34067L6.92182 7.39773L0.451888 12.4566C0.383594 12.5106 0.342259 12.5952 0.342259 12.6833V12.6833Z" fill="#222222"/>
</svg>
