<svg width="78" height="78" viewBox="0 0 78 78" fill="none" xmlns="http://www.w3.org/2000/svg">
<rect width="78" height="78" rx="16" fill="black"/>
<path d="M39.0172 58.7918C36.2759 58.7918 33.7084 58.2724 31.3146 57.2335C28.9205 56.1946 26.824 54.776 25.025 52.9778C23.2261 51.1795 21.8068 49.0826 20.7672 46.6871C19.728 44.292 19.2084 41.7222 19.2084 38.9778C19.2084 36.2465 19.7278 33.6793 20.7667 31.2762C21.8056 28.8731 23.2242 26.7807 25.0224 24.9991C26.8207 23.2175 28.9176 21.8069 31.3131 20.7673C33.7082 19.7281 36.278 19.2085 39.0224 19.2085C41.7537 19.2085 44.3209 19.7279 46.724 20.7668C49.1271 21.8057 51.2195 23.2156 53.0011 24.9965C54.7827 26.7774 56.1933 28.8717 57.2329 31.2793C58.2721 33.687 58.7917 36.2549 58.7917 38.983C58.7917 41.7243 58.2723 44.2918 57.2334 46.6856C56.1945 49.0797 54.7846 51.1729 53.0037 52.9653C51.2228 54.758 49.1285 56.1772 46.7209 57.2231C44.3132 58.2689 41.7454 58.7918 39.0172 58.7918ZM39 56.4278C43.8636 56.4278 47.9841 54.7305 51.3615 51.3361C54.7389 47.9413 56.4276 43.8293 56.4276 39.0002V38.5455C56.4276 38.408 56.421 38.2604 56.4079 38.1028C56.253 38.992 55.8306 39.7338 55.1407 40.3283C54.4511 40.9224 53.6261 41.2194 52.6657 41.2194H47.9381C46.8672 41.2194 45.9585 40.8465 45.212 40.1007C44.4655 39.3549 44.0922 38.4467 44.0922 37.3762V35.4548H36.4V31.6111C36.4 30.5542 36.7733 29.6477 37.5198 28.8918C38.2664 28.1363 39.175 27.7585 40.2459 27.7585H42.1693V26.1314C42.1693 25.4022 42.4537 24.6578 43.0224 23.8981C43.5915 23.138 44.2513 22.718 45.0016 22.6382C44.0669 22.2934 43.1013 22.0295 42.1047 21.8465C41.1082 21.6639 40.0733 21.5726 39 21.5726C34.1709 21.5726 30.0589 23.2613 26.6641 26.6387C23.2697 30.0161 21.5724 34.1366 21.5724 39.0002V39.3007C21.5724 39.3941 21.579 39.4943 21.5922 39.6012H29.5651C31.6964 39.6012 33.5112 40.3503 35.0094 41.8486C36.508 43.3472 37.2573 45.1592 37.2573 47.2845V49.2163H31.4881V54.7252C32.6287 55.2755 33.8301 55.6969 35.0922 55.9892C36.3544 56.2816 37.657 56.4278 39 56.4278Z" fill="white"/>
</svg>
