<svg width="78" height="78" viewBox="0 0 78 78" fill="none" xmlns="http://www.w3.org/2000/svg">
<rect width="78" height="78" rx="16" fill="black"/>
<path d="M62.4376 38.9998C62.4377 41.1632 61.7963 43.278 60.5945 45.0768C59.3927 46.8756 57.6844 48.2776 55.6858 49.1055C53.6871 49.9334 51.4878 50.15 49.3661 49.7279C47.2443 49.3058 45.2953 48.264 43.7657 46.7342L43.7012 46.6658L31.9923 33.4432C30.896 32.3598 29.5038 31.6248 27.9909 31.3308C26.4779 31.0368 24.9118 31.1968 23.4896 31.7908C22.0674 32.3848 20.8527 33.3862 19.9983 34.669C19.1439 35.9517 18.688 37.4586 18.688 38.9998C18.688 40.5411 19.1439 42.0479 19.9983 43.3307C20.8527 44.6134 22.0674 45.6148 23.4896 46.2088C24.9118 46.8028 26.4779 46.9629 27.9909 46.6688C29.5038 46.3748 30.896 45.6399 31.9923 44.5565L33.6563 42.6776C33.7924 42.5237 33.9574 42.3981 34.142 42.308C34.3266 42.2179 34.5272 42.165 34.7322 42.1524C34.9372 42.1398 35.1427 42.1677 35.337 42.2345C35.5312 42.3013 35.7104 42.4057 35.8643 42.5418C36.0182 42.6779 36.1438 42.8429 36.2339 43.0275C36.324 43.2121 36.3769 43.4127 36.3895 43.6177C36.4021 43.8227 36.3742 44.0282 36.3074 44.2225C36.2406 44.4167 36.1361 44.5959 36.0001 44.7498L34.3028 46.6658L34.2383 46.7342C32.7087 48.2637 30.7598 49.3053 28.6382 49.7272C26.5165 50.1492 24.3174 49.9325 22.3189 49.1046C20.3204 48.2768 18.6123 46.8749 17.4105 45.0763C16.2087 43.2776 15.5673 41.163 15.5673 38.9998C15.5673 36.8366 16.2087 34.722 17.4105 32.9234C18.6123 31.1247 20.3204 29.7229 22.3189 28.895C24.3174 28.0671 26.5165 27.8505 28.6382 28.2724C30.7598 28.6943 32.7087 29.7359 34.2383 31.2654L34.3028 31.3338L46.0118 44.5565C47.108 45.6399 48.5002 46.3748 50.0131 46.6688C51.5261 46.9629 53.0922 46.8028 54.5144 46.2088C55.9366 45.6148 57.1513 44.6134 58.0057 43.3307C58.8601 42.0479 59.316 40.5411 59.316 38.9998C59.316 37.4586 58.8601 35.9517 58.0057 34.669C57.1513 33.3862 55.9366 32.3848 54.5144 31.7908C53.0922 31.1968 51.5261 31.0368 50.0131 31.3308C48.5002 31.6248 47.108 32.3598 46.0118 33.4432L44.3477 35.3221C44.0729 35.6329 43.6859 35.8218 43.2718 35.8472C42.8578 35.8727 42.4505 35.7326 42.1397 35.4578C41.8289 35.183 41.64 34.796 41.6146 34.3819C41.5891 33.9679 41.7292 33.5606 42.004 33.2498L43.7012 31.3338L43.7657 31.2654C45.2953 29.7356 47.2443 28.6938 49.3661 28.2717C51.4878 27.8496 53.6871 28.0662 55.6858 28.8941C57.6844 29.722 59.3927 31.124 60.5945 32.9229C61.7963 34.7217 62.4377 36.8365 62.4376 38.9998Z" fill="white"/>
</svg>
