<svg width="285" height="44" viewBox="0 0 285 44" fill="none" xmlns="http://www.w3.org/2000/svg">
<g filter="url(#filter0_b_15_18)">
<path d="M3.6 34V7.52H11.16C13.1067 7.52 14.8267 7.74666 16.32 8.2C17.84 8.62667 19.0267 9.29333 19.88 10.2C20.76 11.1067 21.2 12.2933 21.2 13.76C21.2 15.2267 20.68 16.5067 19.64 17.6C18.6 18.6933 17.1733 19.5067 15.36 20.04C17.8933 20.52 19.7467 21.3733 20.92 22.6C22.12 23.8 22.72 25.12 22.72 26.56C22.72 27.92 22.36 29.08 21.64 30.04C20.9467 31 20.04 31.7733 18.92 32.36C17.8 32.92 16.6133 33.3333 15.36 33.6C14.1333 33.8667 12.9867 34 11.92 34H3.6ZM7.48 19.64H10.36C12.12 19.64 13.4933 19.3733 14.48 18.84C15.4667 18.28 16.16 17.56 16.56 16.68C16.96 15.8 17.16 14.8933 17.16 13.96C17.16 12.9467 16.8133 11.9867 16.12 11.08C15.4267 10.1467 14.28 9.44 12.68 8.96C11.9333 8.96 11.0533 9.04 10.04 9.2C9.02667 9.36 8.17333 9.54667 7.48 9.76V19.64ZM11.12 32.6C12.3467 32.6 13.5067 32.4 14.6 32C15.6933 31.5733 16.5733 30.9333 17.24 30.08C17.9333 29.2267 18.28 28.16 18.28 26.88C18.28 25.76 17.9333 24.7467 17.24 23.84C16.5467 22.9067 15.6133 22.1733 14.44 21.64C13.2667 21.08 11.96 20.8 10.52 20.8H7.48V32.2C7.85333 32.3067 8.38667 32.4 9.08 32.48C9.8 32.56 10.48 32.6 11.12 32.6ZM34.9022 34.48C33.4089 34.48 32.0489 34.1333 30.8222 33.44C29.5955 32.7467 28.6222 31.7333 27.9022 30.4C27.1822 29.04 26.8222 27.4 26.8222 25.48C26.8222 23.5867 27.1155 22 27.7022 20.72C28.3155 19.44 29.1022 18.4133 30.0622 17.64C31.0489 16.8667 32.1022 16.3067 33.2222 15.96C34.3422 15.6133 35.4222 15.44 36.4622 15.44C37.9822 15.44 39.3555 15.7867 40.5822 16.48C41.8089 17.1733 42.7822 18.1867 43.5022 19.52C44.2222 20.8533 44.5822 22.4933 44.5822 24.44C44.5822 26.3333 44.2755 27.92 43.6622 29.2C43.0489 30.48 42.2489 31.5067 41.2622 32.28C40.3022 33.0533 39.2622 33.6133 38.1422 33.96C37.0222 34.3067 35.9422 34.48 34.9022 34.48ZM35.6622 33.12C36.5955 33.12 37.3955 32.8667 38.0622 32.36C38.7289 31.8533 39.2622 31.2 39.6622 30.4C40.0889 29.5733 40.3955 28.6933 40.5822 27.76C40.7955 26.8267 40.9022 25.92 40.9022 25.04C40.9022 23.5733 40.7155 22.24 40.3422 21.04C39.9955 19.8133 39.3955 18.8267 38.5422 18.08C37.7155 17.3333 36.5689 16.96 35.1022 16.96C33.5022 17.5733 32.3289 18.64 31.5822 20.16C30.8355 21.68 30.4622 23.3067 30.4622 25.04C30.4622 26.4533 30.6355 27.7867 30.9822 29.04C31.3289 30.2667 31.8755 31.2533 32.6222 32C33.3955 32.7467 34.4089 33.12 35.6622 33.12ZM54.9022 34.48C53.4089 34.48 52.0489 34.1333 50.8222 33.44C49.5955 32.7467 48.6222 31.7333 47.9022 30.4C47.1822 29.04 46.8222 27.4 46.8222 25.48C46.8222 23.5867 47.1155 22 47.7022 20.72C48.3155 19.44 49.1022 18.4133 50.0622 17.64C51.0489 16.8667 52.1022 16.3067 53.2222 15.96C54.3422 15.6133 55.4222 15.44 56.4622 15.44C57.9822 15.44 59.3555 15.7867 60.5822 16.48C61.8089 17.1733 62.7822 18.1867 63.5022 19.52C64.2222 20.8533 64.5822 22.4933 64.5822 24.44C64.5822 26.3333 64.2755 27.92 63.6622 29.2C63.0489 30.48 62.2489 31.5067 61.2622 32.28C60.3022 33.0533 59.2622 33.6133 58.1422 33.96C57.0222 34.3067 55.9422 34.48 54.9022 34.48ZM55.6622 33.12C56.5955 33.12 57.3955 32.8667 58.0622 32.36C58.7289 31.8533 59.2622 31.2 59.6622 30.4C60.0889 29.5733 60.3955 28.6933 60.5822 27.76C60.7955 26.8267 60.9022 25.92 60.9022 25.04C60.9022 23.5733 60.7155 22.24 60.3422 21.04C59.9955 19.8133 59.3955 18.8267 58.5422 18.08C57.7155 17.3333 56.5689 16.96 55.1022 16.96C53.5022 17.5733 52.3289 18.64 51.5822 20.16C50.8355 21.68 50.4622 23.3067 50.4622 25.04C50.4622 26.4533 50.6355 27.7867 50.9822 29.04C51.3289 30.2667 51.8755 31.2533 52.6222 32C53.3955 32.7467 54.4089 33.12 55.6622 33.12ZM80.5822 34.52L72.1022 23.96V34H68.7422V6.68H72.1022V23.6L81.3422 15.92H83.9822L74.5822 23.04L84.5822 34L80.5822 34.52ZM88.7888 34V21.44C88.7888 20.5067 88.6554 19.76 88.3888 19.2C88.1488 18.6133 87.8688 18.16 87.5488 17.84C87.2288 17.4933 86.9621 17.24 86.7488 17.08L88.7888 15.56L91.9888 18.48C93.1354 17.52 94.1888 16.7733 95.1488 16.24C96.1088 15.7067 97.1221 15.44 98.1888 15.44C99.5221 15.44 100.522 15.7733 101.189 16.44C101.855 17.08 102.295 17.8267 102.509 18.68C102.802 18.36 103.242 17.9467 103.829 17.44C104.442 16.9067 105.189 16.44 106.069 16.04C106.949 15.64 107.922 15.44 108.989 15.44C110.029 15.44 110.855 15.6667 111.469 16.12C112.109 16.5733 112.589 17.1733 112.909 17.92C113.229 18.64 113.442 19.4133 113.549 20.24C113.655 21.0667 113.709 21.8533 113.709 22.6V34H110.349V22.28C110.349 21.5867 110.295 20.9067 110.189 20.24C110.109 19.5467 109.869 18.9733 109.469 18.52C109.069 18.0667 108.375 17.84 107.389 17.84C106.562 17.84 105.709 18.08 104.829 18.56C103.949 19.0133 103.322 19.5333 102.949 20.12V34H99.5488V22.08C99.5488 20.7467 99.3488 19.7067 98.9488 18.96C98.5488 18.2133 97.8288 17.84 96.7888 17.84C96.0688 17.84 95.3488 18.0267 94.6288 18.4C93.9088 18.7467 93.3088 19.12 92.8288 19.52C92.3754 19.8933 92.1488 20.12 92.1488 20.2V34H88.7888ZM116.802 42.8L117.362 39.88C118.855 39.8267 120.122 39.4933 121.162 38.88C122.228 38.2667 123.122 37.4933 123.842 36.56C124.562 35.6533 125.148 34.7333 125.602 33.8L117.482 15.92H121.042L127.162 29.48L131.882 15.92H133.402L126.562 34.6C125.975 36.2 125.188 37.6133 124.202 38.84C123.215 40.0667 122.082 41.0267 120.802 41.72C119.548 42.4133 118.215 42.7733 116.802 42.8ZM143.978 34.48C142.324 34.48 140.831 34.1333 139.498 33.44C138.191 32.7467 137.164 31.7333 136.418 30.4C135.671 29.0667 135.298 27.44 135.298 25.52C135.298 23.3067 135.724 21.4533 136.578 19.96C137.431 18.4667 138.551 17.3467 139.938 16.6C141.324 15.8267 142.804 15.44 144.378 15.44C145.631 15.44 146.764 15.7733 147.778 16.44C148.818 17.08 149.644 18.0533 150.258 19.36C150.898 20.64 151.218 22.24 151.218 24.16H138.458C138.458 26.24 138.778 27.88 139.418 29.08C140.084 30.2533 140.938 31.08 141.978 31.56C143.044 32.04 144.151 32.28 145.298 32.28C146.338 32.28 147.258 32.1733 148.058 31.96C148.858 31.7467 149.591 31.4933 150.258 31.2V32.6C149.431 33.08 148.484 33.52 147.418 33.92C146.351 34.2933 145.204 34.48 143.978 34.48ZM138.618 22.96H147.978C147.898 21.76 147.631 20.7867 147.178 20.04C146.751 19.2933 146.231 18.7333 145.618 18.36C145.031 17.96 144.431 17.6933 143.818 17.56C143.231 17.4 142.738 17.32 142.338 17.32C141.431 17.7467 140.631 18.4667 139.938 19.48C139.271 20.4667 138.831 21.6267 138.618 22.96ZM161.248 34.52L153.408 15.92H156.928L162.448 29.92L167.688 15.92H169.208L161.848 34.52H161.248ZM179.329 34.48C177.676 34.48 176.183 34.1333 174.849 33.44C173.543 32.7467 172.516 31.7333 171.769 30.4C171.023 29.0667 170.649 27.44 170.649 25.52C170.649 23.3067 171.076 21.4533 171.929 19.96C172.783 18.4667 173.903 17.3467 175.289 16.6C176.676 15.8267 178.156 15.44 179.729 15.44C180.983 15.44 182.116 15.7733 183.129 16.44C184.169 17.08 184.996 18.0533 185.609 19.36C186.249 20.64 186.569 22.24 186.569 24.16H173.809C173.809 26.24 174.129 27.88 174.769 29.08C175.436 30.2533 176.289 31.08 177.329 31.56C178.396 32.04 179.503 32.28 180.649 32.28C181.689 32.28 182.609 32.1733 183.409 31.96C184.209 31.7467 184.943 31.4933 185.609 31.2V32.6C184.783 33.08 183.836 33.52 182.769 33.92C181.703 34.2933 180.556 34.48 179.329 34.48ZM173.969 22.96H183.329C183.249 21.76 182.983 20.7867 182.529 20.04C182.103 19.2933 181.583 18.7333 180.969 18.36C180.383 17.96 179.783 17.6933 179.169 17.56C178.583 17.4 178.089 17.32 177.689 17.32C176.783 17.7467 175.983 18.4667 175.289 19.48C174.623 20.4667 174.183 21.6267 173.969 22.96ZM191.559 34V21.44C191.559 20.5067 191.426 19.76 191.159 19.2C190.919 18.6133 190.639 18.16 190.319 17.84C189.999 17.4933 189.733 17.24 189.519 17.08L191.559 15.56L194.839 18.48C195.826 17.5467 196.746 16.8133 197.599 16.28C198.479 15.72 199.506 15.44 200.679 15.44C201.293 15.44 201.959 15.6 202.679 15.92C203.426 16.24 204.066 16.84 204.599 17.72C205.133 18.5733 205.399 19.8267 205.399 21.48V34H201.999V21.88C201.999 20.6267 201.773 19.6667 201.319 19C200.893 18.3067 200.093 17.96 198.919 17.96C197.773 17.96 196.453 18.7067 194.959 20.2V34H191.559ZM215.879 34.48C214.786 34.48 213.866 34.16 213.119 33.52C212.373 32.88 211.999 31.8 211.999 30.28V17.36L208.759 16.72V15.92H211.999V14.48L215.359 12.04V15.92H220.119V17.36H215.359V30.48C215.359 31.2267 215.506 31.8133 215.799 32.24C216.119 32.6667 216.706 32.88 217.559 32.88C217.933 32.88 218.346 32.8267 218.799 32.72C219.253 32.5867 219.693 32.44 220.119 32.28V33.4C219.533 33.6667 218.866 33.9067 218.119 34.12C217.399 34.36 216.653 34.48 215.879 34.48Z" fill="#222222"/>
</g>
<path d="M260.846 5.27857C262.068 3.30952 264.932 3.30952 266.154 5.27857L266.694 6.14919C267.497 7.44373 269.116 7.97003 270.527 7.39468L271.476 7.00773C273.621 6.13259 275.939 7.81656 275.769 10.1274L275.695 11.1492C275.583 12.6684 276.584 14.0463 278.064 14.4099L279.058 14.6544C281.309 15.2075 282.194 17.9322 280.699 19.7022L280.037 20.4848C279.054 21.6484 279.054 23.3516 280.037 24.5152L280.699 25.2978C282.194 27.0678 281.309 29.7925 279.058 30.3456L278.064 30.5901C276.584 30.9537 275.583 32.3316 275.695 33.8508L275.769 34.8726C275.939 37.1834 273.621 38.8674 271.476 37.9923L270.527 37.6053C269.116 37.03 267.497 37.5563 266.694 38.8508L266.154 39.7214C264.932 41.6905 262.068 41.6905 260.846 39.7214L260.306 38.8508C259.503 37.5563 257.884 37.03 256.473 37.6053L255.524 37.9923C253.379 38.8674 251.061 37.1834 251.231 34.8726L251.305 33.8508C251.417 32.3316 250.416 30.9537 248.936 30.5901L247.942 30.3456C245.691 29.7925 244.806 27.0678 246.301 25.2978L246.963 24.5152C247.946 23.3516 247.946 21.6484 246.963 20.4848L246.301 19.7022C244.806 17.9322 245.691 15.2075 247.942 14.6544L248.936 14.4099C250.416 14.0463 251.417 12.6684 251.305 11.1492L251.231 10.1274C251.061 7.81656 253.379 6.13259 255.524 7.00773L256.473 7.39468C257.884 7.97003 259.503 7.44373 260.306 6.14919L260.846 5.27857Z" fill="#2F861B" fill-opacity="0.8"/>
<defs>
<filter id="filter0_b_15_18" x="-0.399994" y="2.68005" width="224.519" height="44.12" filterUnits="userSpaceOnUse" color-interpolation-filters="sRGB">
<feFlood flood-opacity="0" result="BackgroundImageFix"/>
<feGaussianBlur in="BackgroundImageFix" stdDeviation="2"/>
<feComposite in2="SourceAlpha" operator="in" result="effect1_backgroundBlur_15_18"/>
<feBlend mode="normal" in="SourceGraphic" in2="effect1_backgroundBlur_15_18" result="shape"/>
</filter>
</defs>
</svg>
