<svg width="540" height="403" viewBox="0 0 540 403" fill="none" xmlns="http://www.w3.org/2000/svg">
<path opacity="0.15" d="M464.126 90.6398L479.586 107.905" stroke="#135677" stroke-width="4" stroke-miterlimit="10" stroke-linecap="round" stroke-linejoin="round"/>
<g opacity="0.6">
<g opacity="0.15">
<path d="M112.168 203.552H2V472H112.168V203.552Z" stroke="#02283F" stroke-width="4" stroke-miterlimit="10" stroke-linecap="round" stroke-linejoin="round"/>
<path d="M25.9844 470.121V203.552" stroke="#02283F" stroke-width="4" stroke-miterlimit="10" stroke-linecap="round" stroke-linejoin="round"/>
<path d="M89.5557 470.121V203.552" stroke="#02283F" stroke-width="4" stroke-miterlimit="10" stroke-linecap="round" stroke-linejoin="round"/>
<path d="M57.7705 470.121V203.552" stroke="#02283F" stroke-width="4" stroke-miterlimit="10" stroke-linecap="round" stroke-linejoin="round"/>
<path d="M2.14453 231.726H112.673" stroke="#02283F" stroke-width="4" stroke-miterlimit="10" stroke-linecap="round" stroke-linejoin="round"/>
<path d="M2.14453 245.452H112.673" stroke="#02283F" stroke-width="4" stroke-miterlimit="10" stroke-linecap="round" stroke-linejoin="round"/>
<path d="M2.14453 279.406H112.673" stroke="#02283F" stroke-width="4" stroke-miterlimit="10" stroke-linecap="round" stroke-linejoin="round"/>
<path d="M2.14453 294.576H112.673" stroke="#02283F" stroke-width="4" stroke-miterlimit="10" stroke-linecap="round" stroke-linejoin="round"/>
<path d="M2.14453 329.974H112.673" stroke="#02283F" stroke-width="4" stroke-miterlimit="10" stroke-linecap="round" stroke-linejoin="round"/>
<path d="M2.14453 345.145H112.673" stroke="#02283F" stroke-width="4" stroke-miterlimit="10" stroke-linecap="round" stroke-linejoin="round"/>
<path d="M2.14453 381.988H112.673" stroke="#02283F" stroke-width="4" stroke-miterlimit="10" stroke-linecap="round" stroke-linejoin="round"/>
<path d="M2.14453 396.436H112.673" stroke="#02283F" stroke-width="4" stroke-miterlimit="10" stroke-linecap="round" stroke-linejoin="round"/>
<path d="M89.9179 180.001H26.5625V204.13H89.9179V180.001Z" stroke="#02283F" stroke-width="4" stroke-miterlimit="10" stroke-linecap="round" stroke-linejoin="round"/>
<path d="M75.1799 155.873H41.2988V180.002H75.1799V155.873Z" stroke="#02283F" stroke-width="4" stroke-miterlimit="10" stroke-linecap="round" stroke-linejoin="round"/>
</g>
<g opacity="0.15">
<path d="M463.981 471.35H419.336V202.541H537.089V471.35H502.413" stroke="#02283F" stroke-width="4" stroke-miterlimit="10" stroke-linecap="round" stroke-linejoin="round"/>
<path d="M448.811 227.175H434.579V252.17H448.811V227.175Z" stroke="#02283F" stroke-width="4" stroke-miterlimit="10" stroke-linecap="round" stroke-linejoin="round"/>
<path d="M473.155 227.175H458.924V252.17H473.155V227.175Z" stroke="#02283F" stroke-width="4" stroke-miterlimit="10" stroke-linecap="round" stroke-linejoin="round"/>
<path d="M497.501 227.175H483.27V252.17H497.501V227.175Z" stroke="#02283F" stroke-width="4" stroke-miterlimit="10" stroke-linecap="round" stroke-linejoin="round"/>
<path d="M521.918 227.175H507.687V252.17H521.918V227.175Z" stroke="#02283F" stroke-width="4" stroke-miterlimit="10" stroke-linecap="round" stroke-linejoin="round"/>
<path d="M448.811 264.74H434.579V289.736H448.811V264.74Z" stroke="#02283F" stroke-width="4" stroke-miterlimit="10" stroke-linecap="round" stroke-linejoin="round"/>
<path d="M473.155 264.74H458.924V289.736H473.155V264.74Z" stroke="#02283F" stroke-width="4" stroke-miterlimit="10" stroke-linecap="round" stroke-linejoin="round"/>
<path d="M497.501 264.74H483.27V289.736H497.501V264.74Z" stroke="#02283F" stroke-width="4" stroke-miterlimit="10" stroke-linecap="round" stroke-linejoin="round"/>
<path d="M521.918 264.74H507.687V289.736H521.918V264.74Z" stroke="#02283F" stroke-width="4" stroke-miterlimit="10" stroke-linecap="round" stroke-linejoin="round"/>
<path d="M448.811 336.259H434.579V357.642H448.811V336.259Z" stroke="#02283F" stroke-width="4" stroke-miterlimit="10" stroke-linecap="round" stroke-linejoin="round"/>
<path d="M473.155 336.259H458.924V357.642H473.155V336.259Z" stroke="#02283F" stroke-width="4" stroke-miterlimit="10" stroke-linecap="round" stroke-linejoin="round"/>
<path d="M497.501 336.259H483.27V357.642H497.501V336.259Z" stroke="#02283F" stroke-width="4" stroke-miterlimit="10" stroke-linecap="round" stroke-linejoin="round"/>
<path d="M521.918 336.259H507.687V357.642H521.918V336.259Z" stroke="#02283F" stroke-width="4" stroke-miterlimit="10" stroke-linecap="round" stroke-linejoin="round"/>
<path d="M434.146 311.192H521.557" stroke="#02283F" stroke-width="4" stroke-miterlimit="10" stroke-linecap="round" stroke-linejoin="round"/>
<path d="M434.146 322.75H521.557" stroke="#02283F" stroke-width="4" stroke-miterlimit="10" stroke-linecap="round" stroke-linejoin="round"/>
<path d="M434.146 371.874H521.557" stroke="#02283F" stroke-width="4" stroke-miterlimit="10" stroke-linecap="round" stroke-linejoin="round"/>
<path d="M434.146 384.154H521.557" stroke="#02283F" stroke-width="4" stroke-miterlimit="10" stroke-linecap="round" stroke-linejoin="round"/>
<path d="M434.146 396.436H521.557" stroke="#02283F" stroke-width="4" stroke-miterlimit="10" stroke-linecap="round" stroke-linejoin="round"/>
<path d="M521.557 176.823H441.658V202.541H521.557V176.823Z" stroke="#02283F" stroke-width="4" stroke-miterlimit="10" stroke-linecap="round" stroke-linejoin="round"/>
<path d="M504.291 151.105H458.924V176.823H504.291V151.105Z" stroke="#02283F" stroke-width="4" stroke-miterlimit="10" stroke-linecap="round" stroke-linejoin="round"/>
<path d="M480.38 150.816V110.361" stroke="#02283F" stroke-width="4" stroke-miterlimit="10" stroke-linecap="round" stroke-linejoin="round"/>
</g>
<g opacity="0.15">
<path d="M360.243 471.567H299.488V210.849L329.902 177.691L360.243 210.849V471.567Z" stroke="#02283F" stroke-width="4" stroke-miterlimit="10" stroke-linecap="round" stroke-linejoin="round"/>
<path d="M411.173 471.567H360.243V261.418C360.243 232.088 379.532 227.32 411.173 212.077V471.567Z" stroke="#02283F" stroke-width="4" stroke-miterlimit="10" stroke-linecap="round" stroke-linejoin="round"/>
<path d="M378.521 386.323V399.327" stroke="#02283F" stroke-width="4" stroke-miterlimit="10" stroke-linejoin="round"/>
<path d="M392.246 386.323V399.327" stroke="#02283F" stroke-width="4" stroke-miterlimit="10" stroke-linejoin="round"/>
<path d="M378.521 358.871V371.875" stroke="#02283F" stroke-width="4" stroke-miterlimit="10" stroke-linejoin="round"/>
<path d="M392.246 358.871V371.875" stroke="#02283F" stroke-width="4" stroke-miterlimit="10" stroke-linejoin="round"/>
<path d="M378.521 331.42V344.423" stroke="#02283F" stroke-width="4" stroke-miterlimit="10" stroke-linejoin="round"/>
<path d="M392.246 331.42V344.423" stroke="#02283F" stroke-width="4" stroke-miterlimit="10" stroke-linejoin="round"/>
<path d="M378.521 303.969V316.972" stroke="#02283F" stroke-width="4" stroke-miterlimit="10" stroke-linejoin="round"/>
<path d="M392.246 303.969V316.972" stroke="#02283F" stroke-width="4" stroke-miterlimit="10" stroke-linejoin="round"/>
<path d="M378.521 276.517V289.52" stroke="#02283F" stroke-width="4" stroke-miterlimit="10" stroke-linejoin="round"/>
<path d="M392.246 276.517V289.52" stroke="#02283F" stroke-width="4" stroke-miterlimit="10" stroke-linejoin="round"/>
<path d="M378.521 249.066V262.069" stroke="#02283F" stroke-width="4" stroke-miterlimit="10" stroke-linejoin="round"/>
<path d="M392.246 249.066V262.069" stroke="#02283F" stroke-width="4" stroke-miterlimit="10" stroke-linejoin="round"/>
<path d="M248.342 471.567H299.272V261.418C299.272 232.088 279.983 227.32 248.342 212.077V471.567Z" stroke="#02283F" stroke-width="4" stroke-miterlimit="10" stroke-linecap="round" stroke-linejoin="round"/>
<path d="M278.827 386.323V399.327" stroke="#02283F" stroke-width="4" stroke-miterlimit="10" stroke-linejoin="round"/>
<path d="M265.824 386.323V399.327" stroke="#02283F" stroke-width="4" stroke-miterlimit="10" stroke-linejoin="round"/>
<path d="M278.827 358.871V371.875" stroke="#02283F" stroke-width="4" stroke-miterlimit="10" stroke-linejoin="round"/>
<path d="M265.824 358.871V371.875" stroke="#02283F" stroke-width="4" stroke-miterlimit="10" stroke-linejoin="round"/>
<path d="M278.827 331.42V344.423" stroke="#02283F" stroke-width="4" stroke-miterlimit="10" stroke-linejoin="round"/>
<path d="M265.824 331.42V344.423" stroke="#02283F" stroke-width="4" stroke-miterlimit="10" stroke-linejoin="round"/>
<path d="M278.827 303.969V316.972" stroke="#02283F" stroke-width="4" stroke-miterlimit="10" stroke-linejoin="round"/>
<path d="M265.824 303.969V316.972" stroke="#02283F" stroke-width="4" stroke-miterlimit="10" stroke-linejoin="round"/>
<path d="M278.827 276.517V289.52" stroke="#02283F" stroke-width="4" stroke-miterlimit="10" stroke-linejoin="round"/>
<path d="M265.824 276.517V289.52" stroke="#02283F" stroke-width="4" stroke-miterlimit="10" stroke-linejoin="round"/>
<path d="M278.827 249.066V262.069" stroke="#02283F" stroke-width="4" stroke-miterlimit="10" stroke-linejoin="round"/>
<path d="M265.824 249.066V262.069" stroke="#02283F" stroke-width="4" stroke-miterlimit="10" stroke-linejoin="round"/>
<path d="M317.838 220.168V407.273" stroke="#02283F" stroke-width="4" stroke-miterlimit="10" stroke-linecap="round" stroke-linejoin="round"/>
<path d="M343.845 220.168V407.272" stroke="#02283F" stroke-width="4" stroke-miterlimit="10" stroke-linecap="round" stroke-linejoin="round"/>
<path d="M309.603 374.764H349.696" stroke="#02283F" stroke-width="4" stroke-miterlimit="10" stroke-linecap="round" stroke-linejoin="round"/>
<path d="M309.603 347.312H349.696" stroke="#02283F" stroke-width="4" stroke-miterlimit="10" stroke-linecap="round" stroke-linejoin="round"/>
<path d="M309.603 319.86H349.696" stroke="#02283F" stroke-width="4" stroke-miterlimit="10" stroke-linecap="round" stroke-linejoin="round"/>
<path d="M309.603 292.409H349.696" stroke="#02283F" stroke-width="4" stroke-miterlimit="10" stroke-linecap="round" stroke-linejoin="round"/>
<path d="M309.603 264.957H349.696" stroke="#02283F" stroke-width="4" stroke-miterlimit="10" stroke-linecap="round" stroke-linejoin="round"/>
<path d="M309.603 237.506H349.696" stroke="#02283F" stroke-width="4" stroke-miterlimit="10" stroke-linecap="round" stroke-linejoin="round"/>
</g>
<g opacity="0.15">
<path d="M236.855 177.69H130.589V471.35H236.855V177.69Z" stroke="#02283F" stroke-width="4" stroke-miterlimit="10" stroke-linecap="round" stroke-linejoin="round"/>
<path d="M157.246 199.507H144.748V407.995H157.246V199.507Z" stroke="#02283F" stroke-width="4" stroke-miterlimit="10" stroke-linecap="round" stroke-linejoin="round"/>
<path d="M179.351 199.507H166.854V407.995H179.351V199.507Z" stroke="#02283F" stroke-width="4" stroke-miterlimit="10" stroke-linecap="round" stroke-linejoin="round"/>
<path d="M201.53 199.507H189.032V407.995H201.53V199.507Z" stroke="#02283F" stroke-width="4" stroke-miterlimit="10" stroke-linecap="round" stroke-linejoin="round"/>
<path d="M223.635 199.507H211.138V407.995H223.635V199.507Z" stroke="#02283F" stroke-width="4" stroke-miterlimit="10" stroke-linecap="round" stroke-linejoin="round"/>
<path d="M223.636 147.927H189.032V177.69H223.636V147.927Z" stroke="#02283F" stroke-width="4" stroke-miterlimit="10" stroke-linecap="round" stroke-linejoin="round"/>
<path d="M205.142 147.927V121.92" stroke="#02283F" stroke-width="4" stroke-miterlimit="10" stroke-linecap="round" stroke-linejoin="round"/>
<path d="M176.173 158.257H143.376V177.69H176.173V158.257Z" stroke="#02283F" stroke-width="4" stroke-miterlimit="10" stroke-linecap="round" stroke-linejoin="round"/>
</g>
</g>
<path d="M147.565 88.1836H209.765" stroke="#CCE1EA" stroke-width="4" stroke-miterlimit="10" stroke-linecap="round" stroke-linejoin="round"/>
<path d="M190.332 104.149H205.43" stroke="#CCE1EA" stroke-width="4" stroke-miterlimit="10" stroke-linecap="round" stroke-linejoin="round"/>
<path d="M173.066 95.2637H200.951" stroke="#CCE1EA" stroke-width="4" stroke-miterlimit="10" stroke-linecap="round" stroke-linejoin="round"/>
<path d="M307.94 46.5011V63.1888" stroke="#CCE1EA" stroke-width="4" stroke-miterlimit="10" stroke-linecap="round" stroke-linejoin="round"/>
<path d="M292.914 49.1739L298.621 64.8502" stroke="#CCE1EA" stroke-width="4" stroke-miterlimit="10" stroke-linecap="round" stroke-linejoin="round"/>
<path d="M279.622 56.7588L290.386 69.6177" stroke="#CCE1EA" stroke-width="4" stroke-miterlimit="10" stroke-linecap="round" stroke-linejoin="round"/>
<path d="M269.797 68.5342L284.317 76.8419" stroke="#CCE1EA" stroke-width="4" stroke-miterlimit="10" stroke-linecap="round" stroke-linejoin="round"/>
<path d="M264.596 82.8379L281.067 85.7998" stroke="#CCE1EA" stroke-width="4" stroke-miterlimit="10" stroke-linecap="round" stroke-linejoin="round"/>
<path d="M264.596 98.1534L281.067 95.2637" stroke="#CCE1EA" stroke-width="4" stroke-miterlimit="10" stroke-linecap="round" stroke-linejoin="round"/>
<path d="M269.797 112.529L284.317 104.149" stroke="#CCE1EA" stroke-width="4" stroke-miterlimit="10" stroke-linecap="round" stroke-linejoin="round"/>
<path d="M279.622 124.233L290.386 111.446" stroke="#CCE1EA" stroke-width="4" stroke-miterlimit="10" stroke-linecap="round" stroke-linejoin="round"/>
<path d="M292.914 131.89L298.621 116.141" stroke="#CCE1EA" stroke-width="4" stroke-miterlimit="10" stroke-linecap="round" stroke-linejoin="round"/>
<path d="M307.94 134.49V117.803" stroke="#CCE1EA" stroke-width="4" stroke-miterlimit="10" stroke-linecap="round" stroke-linejoin="round"/>
<path d="M322.967 131.89L317.26 116.142" stroke="#CCE1EA" stroke-width="4" stroke-miterlimit="10" stroke-linecap="round" stroke-linejoin="round"/>
<path d="M336.259 124.233L325.495 111.446" stroke="#CCE1EA" stroke-width="4" stroke-miterlimit="10" stroke-linecap="round" stroke-linejoin="round"/>
<path d="M346.084 112.529L331.563 104.149" stroke="#CCE1EA" stroke-width="4" stroke-miterlimit="10" stroke-linecap="round" stroke-linejoin="round"/>
<path d="M351.285 98.1533L334.814 95.2637" stroke="#CCE1EA" stroke-width="4" stroke-miterlimit="10" stroke-linecap="round" stroke-linejoin="round"/>
<path d="M351.285 82.8379L334.814 85.7998" stroke="#CCE1EA" stroke-width="4" stroke-miterlimit="10" stroke-linecap="round" stroke-linejoin="round"/>
<path d="M346.084 68.5342L331.563 76.8419" stroke="#CCE1EA" stroke-width="4" stroke-miterlimit="10" stroke-linecap="round" stroke-linejoin="round"/>
<path d="M336.259 56.7588L325.495 69.6177" stroke="#CCE1EA" stroke-width="4" stroke-miterlimit="10" stroke-linecap="round" stroke-linejoin="round"/>
<path d="M322.967 49.1738L317.26 64.8501" stroke="#CCE1EA" stroke-width="4" stroke-miterlimit="10" stroke-linecap="round" stroke-linejoin="round"/>
<path d="M307.94 105.522C316.239 105.522 322.966 98.7946 322.966 90.4959C322.966 82.1972 316.239 75.4697 307.94 75.4697C299.641 75.4697 292.914 82.1972 292.914 90.4959C292.914 98.7946 299.641 105.522 307.94 105.522Z" fill="#FFBF73"/>
<path d="M530.949 52.9298C531.021 52.4241 531.021 51.8462 531.021 51.3405C531.021 40.6489 522.352 32.0522 511.733 32.0522C507.615 32.0522 503.786 33.3525 500.68 35.5197C498.368 27.4287 490.927 21.5772 482.114 21.5772C480.597 21.5772 479.152 21.7217 477.707 22.0829C472.867 16.6648 465.788 13.1973 457.913 13.1973C444.404 13.1973 433.207 23.311 431.545 36.3866C431.256 36.3866 430.967 36.3144 430.606 36.3144C422.298 36.3144 415.58 43.0328 415.58 51.3405C415.58 51.8462 415.58 52.4241 415.652 52.9298H530.949Z" stroke="#CCE1EA" stroke-width="4" stroke-miterlimit="10" stroke-linecap="round" stroke-linejoin="round"/>
<path d="M84.8605 60.5875C81.6096 55.9641 76.1916 52.8577 70.0511 52.8577C68.6062 52.8577 67.2337 53.0022 65.9333 53.3634C61.3821 48.3066 54.736 45.0557 47.3674 45.0557C34.7252 45.0557 24.2502 54.5193 22.7332 66.728C22.4442 66.728 22.1553 66.6558 21.8663 66.6558C14.1365 66.6558 7.7793 72.9408 7.7793 80.7428C7.7793 81.2485 7.7793 81.7542 7.85154 82.2599H81.4651" stroke="#CCE1EA" stroke-width="4" stroke-miterlimit="10" stroke-linecap="round" stroke-linejoin="round"/>
<path d="M327.734 2H374.835" stroke="#CCE1EA" stroke-width="4" stroke-miterlimit="10" stroke-linecap="round" stroke-linejoin="round"/>
<path d="M353.236 13.1973H409.079" stroke="#CCE1EA" stroke-width="4" stroke-miterlimit="10" stroke-linecap="round" stroke-linejoin="round"/>
<path d="M132.467 82.2597C133.117 80.7427 133.478 79.0811 133.478 77.2751C133.478 70.5567 128.133 65.1386 121.486 65.1386C119.825 65.1386 118.236 65.4998 116.791 66.0777C114.118 58.9259 107.255 53.7968 99.2362 53.7968C89.6282 53.7968 81.7539 61.0209 80.6703 70.2677C79.8756 70.1232 79.081 69.9787 78.2863 69.9787C72.2181 69.9787 67.3779 74.7467 67.3779 80.5982C67.3779 81.1039 67.4502 81.6818 67.5224 82.1875H132.467V82.2597Z" stroke="#CCE1EA" stroke-width="4" stroke-miterlimit="10" stroke-linecap="round" stroke-linejoin="round"/>
</svg>
