<svg width="218" height="37" viewBox="0 0 218 37" fill="none" xmlns="http://www.w3.org/2000/svg">
<g filter="url(#filter0_b_1_1267)">
<path d="M0.6 28V1.52H8.16C10.1067 1.52 11.8267 1.74666 13.32 2.2C14.84 2.62667 16.0267 3.29333 16.88 4.2C17.76 5.10666 18.2 6.29333 18.2 7.76C18.2 9.22667 17.68 10.5067 16.64 11.6C15.6 12.6933 14.1733 13.5067 12.36 14.04C14.8933 14.52 16.7467 15.3733 17.92 16.6C19.12 17.8 19.72 19.12 19.72 20.56C19.72 21.92 19.36 23.08 18.64 24.04C17.9467 25 17.04 25.7733 15.92 26.36C14.8 26.92 13.6133 27.3333 12.36 27.6C11.1333 27.8667 9.98667 28 8.92 28H0.6ZM4.48 13.64H7.36C9.12 13.64 10.4933 13.3733 11.48 12.84C12.4667 12.28 13.16 11.56 13.56 10.68C13.96 9.8 14.16 8.89333 14.16 7.96C14.16 6.94667 13.8133 5.98667 13.12 5.08C12.4267 4.14667 11.28 3.44 9.68 2.96C8.93333 2.96 8.05333 3.04 7.04 3.2C6.02667 3.36 5.17333 3.54667 4.48 3.76V13.64ZM8.12 26.6C9.34667 26.6 10.5067 26.4 11.6 26C12.6933 25.5733 13.5733 24.9333 14.24 24.08C14.9333 23.2267 15.28 22.16 15.28 20.88C15.28 19.76 14.9333 18.7467 14.24 17.84C13.5467 16.9067 12.6133 16.1733 11.44 15.64C10.2667 15.08 8.96 14.8 7.52 14.8H4.48V26.2C4.85333 26.3067 5.38667 26.4 6.08 26.48C6.8 26.56 7.48 26.6 8.12 26.6ZM31.9022 28.48C30.4089 28.48 29.0489 28.1333 27.8222 27.44C26.5955 26.7467 25.6222 25.7333 24.9022 24.4C24.1822 23.04 23.8222 21.4 23.8222 19.48C23.8222 17.5867 24.1155 16 24.7022 14.72C25.3155 13.44 26.1022 12.4133 27.0622 11.64C28.0489 10.8667 29.1022 10.3067 30.2222 9.96C31.3422 9.61333 32.4222 9.44 33.4622 9.44C34.9822 9.44 36.3555 9.78667 37.5822 10.48C38.8089 11.1733 39.7822 12.1867 40.5022 13.52C41.2222 14.8533 41.5822 16.4933 41.5822 18.44C41.5822 20.3333 41.2755 21.92 40.6622 23.2C40.0489 24.48 39.2489 25.5067 38.2622 26.28C37.3022 27.0533 36.2622 27.6133 35.1422 27.96C34.0222 28.3067 32.9422 28.48 31.9022 28.48ZM32.6622 27.12C33.5955 27.12 34.3955 26.8667 35.0622 26.36C35.7289 25.8533 36.2622 25.2 36.6622 24.4C37.0889 23.5733 37.3955 22.6933 37.5822 21.76C37.7955 20.8267 37.9022 19.92 37.9022 19.04C37.9022 17.5733 37.7155 16.24 37.3422 15.04C36.9955 13.8133 36.3955 12.8267 35.5422 12.08C34.7155 11.3333 33.5689 10.96 32.1022 10.96C30.5022 11.5733 29.3289 12.64 28.5822 14.16C27.8355 15.68 27.4622 17.3067 27.4622 19.04C27.4622 20.4533 27.6355 21.7867 27.9822 23.04C28.3289 24.2667 28.8755 25.2533 29.6222 26C30.3955 26.7467 31.4089 27.12 32.6622 27.12ZM51.9022 28.48C50.4089 28.48 49.0489 28.1333 47.8222 27.44C46.5955 26.7467 45.6222 25.7333 44.9022 24.4C44.1822 23.04 43.8222 21.4 43.8222 19.48C43.8222 17.5867 44.1155 16 44.7022 14.72C45.3155 13.44 46.1022 12.4133 47.0622 11.64C48.0489 10.8667 49.1022 10.3067 50.2222 9.96C51.3422 9.61333 52.4222 9.44 53.4622 9.44C54.9822 9.44 56.3555 9.78667 57.5822 10.48C58.8089 11.1733 59.7822 12.1867 60.5022 13.52C61.2222 14.8533 61.5822 16.4933 61.5822 18.44C61.5822 20.3333 61.2755 21.92 60.6622 23.2C60.0489 24.48 59.2489 25.5067 58.2622 26.28C57.3022 27.0533 56.2622 27.6133 55.1422 27.96C54.0222 28.3067 52.9422 28.48 51.9022 28.48ZM52.6622 27.12C53.5955 27.12 54.3955 26.8667 55.0622 26.36C55.7289 25.8533 56.2622 25.2 56.6622 24.4C57.0889 23.5733 57.3955 22.6933 57.5822 21.76C57.7955 20.8267 57.9022 19.92 57.9022 19.04C57.9022 17.5733 57.7155 16.24 57.3422 15.04C56.9955 13.8133 56.3955 12.8267 55.5422 12.08C54.7155 11.3333 53.5689 10.96 52.1022 10.96C50.5022 11.5733 49.3289 12.64 48.5822 14.16C47.8355 15.68 47.4622 17.3067 47.4622 19.04C47.4622 20.4533 47.6355 21.7867 47.9822 23.04C48.3289 24.2667 48.8755 25.2533 49.6222 26C50.3955 26.7467 51.4089 27.12 52.6622 27.12ZM77.5822 28.52L69.1022 17.96V28H65.7422V0.679999H69.1022V17.6L78.3422 9.92H80.9822L71.5822 17.04L81.5822 28L77.5822 28.52ZM85.7888 28V15.44C85.7888 14.5067 85.6554 13.76 85.3888 13.2C85.1488 12.6133 84.8688 12.16 84.5488 11.84C84.2288 11.4933 83.9621 11.24 83.7488 11.08L85.7888 9.56L88.9888 12.48C90.1354 11.52 91.1888 10.7733 92.1488 10.24C93.1088 9.70667 94.1221 9.44 95.1888 9.44C96.5221 9.44 97.5221 9.77333 98.1888 10.44C98.8554 11.08 99.2954 11.8267 99.5088 12.68C99.8021 12.36 100.242 11.9467 100.829 11.44C101.442 10.9067 102.189 10.44 103.069 10.04C103.949 9.64 104.922 9.44 105.989 9.44C107.029 9.44 107.855 9.66667 108.469 10.12C109.109 10.5733 109.589 11.1733 109.909 11.92C110.229 12.64 110.442 13.4133 110.549 14.24C110.655 15.0667 110.709 15.8533 110.709 16.6V28H107.349V16.28C107.349 15.5867 107.295 14.9067 107.189 14.24C107.109 13.5467 106.869 12.9733 106.469 12.52C106.069 12.0667 105.375 11.84 104.389 11.84C103.562 11.84 102.709 12.08 101.829 12.56C100.949 13.0133 100.322 13.5333 99.9488 14.12V28H96.5488V16.08C96.5488 14.7467 96.3488 13.7067 95.9488 12.96C95.5488 12.2133 94.8288 11.84 93.7888 11.84C93.0688 11.84 92.3488 12.0267 91.6288 12.4C90.9088 12.7467 90.3088 13.12 89.8288 13.52C89.3754 13.8933 89.1488 14.12 89.1488 14.2V28H85.7888ZM113.802 36.8L114.362 33.88C115.855 33.8267 117.122 33.4933 118.162 32.88C119.228 32.2667 120.122 31.4933 120.842 30.56C121.562 29.6533 122.148 28.7333 122.602 27.8L114.482 9.92H118.042L124.162 23.48L128.882 9.92H130.402L123.562 28.6C122.975 30.2 122.188 31.6133 121.202 32.84C120.215 34.0667 119.082 35.0267 117.802 35.72C116.548 36.4133 115.215 36.7733 113.802 36.8ZM140.978 28.48C139.324 28.48 137.831 28.1333 136.498 27.44C135.191 26.7467 134.164 25.7333 133.418 24.4C132.671 23.0667 132.298 21.44 132.298 19.52C132.298 17.3067 132.724 15.4533 133.578 13.96C134.431 12.4667 135.551 11.3467 136.938 10.6C138.324 9.82667 139.804 9.44 141.378 9.44C142.631 9.44 143.764 9.77333 144.778 10.44C145.818 11.08 146.644 12.0533 147.258 13.36C147.898 14.64 148.218 16.24 148.218 18.16H135.458C135.458 20.24 135.778 21.88 136.418 23.08C137.084 24.2533 137.938 25.08 138.978 25.56C140.044 26.04 141.151 26.28 142.298 26.28C143.338 26.28 144.258 26.1733 145.058 25.96C145.858 25.7467 146.591 25.4933 147.258 25.2V26.6C146.431 27.08 145.484 27.52 144.418 27.92C143.351 28.2933 142.204 28.48 140.978 28.48ZM135.618 16.96H144.978C144.898 15.76 144.631 14.7867 144.178 14.04C143.751 13.2933 143.231 12.7333 142.618 12.36C142.031 11.96 141.431 11.6933 140.818 11.56C140.231 11.4 139.738 11.32 139.338 11.32C138.431 11.7467 137.631 12.4667 136.938 13.48C136.271 14.4667 135.831 15.6267 135.618 16.96ZM158.248 28.52L150.408 9.92H153.928L159.448 23.92L164.688 9.92H166.208L158.848 28.52H158.248ZM176.329 28.48C174.676 28.48 173.183 28.1333 171.849 27.44C170.543 26.7467 169.516 25.7333 168.769 24.4C168.023 23.0667 167.649 21.44 167.649 19.52C167.649 17.3067 168.076 15.4533 168.929 13.96C169.783 12.4667 170.903 11.3467 172.289 10.6C173.676 9.82667 175.156 9.44 176.729 9.44C177.983 9.44 179.116 9.77333 180.129 10.44C181.169 11.08 181.996 12.0533 182.609 13.36C183.249 14.64 183.569 16.24 183.569 18.16H170.809C170.809 20.24 171.129 21.88 171.769 23.08C172.436 24.2533 173.289 25.08 174.329 25.56C175.396 26.04 176.503 26.28 177.649 26.28C178.689 26.28 179.609 26.1733 180.409 25.96C181.209 25.7467 181.943 25.4933 182.609 25.2V26.6C181.783 27.08 180.836 27.52 179.769 27.92C178.703 28.2933 177.556 28.48 176.329 28.48ZM170.969 16.96H180.329C180.249 15.76 179.983 14.7867 179.529 14.04C179.103 13.2933 178.583 12.7333 177.969 12.36C177.383 11.96 176.783 11.6933 176.169 11.56C175.583 11.4 175.089 11.32 174.689 11.32C173.783 11.7467 172.983 12.4667 172.289 13.48C171.623 14.4667 171.183 15.6267 170.969 16.96ZM188.559 28V15.44C188.559 14.5067 188.426 13.76 188.159 13.2C187.919 12.6133 187.639 12.16 187.319 11.84C186.999 11.4933 186.733 11.24 186.519 11.08L188.559 9.56L191.839 12.48C192.826 11.5467 193.746 10.8133 194.599 10.28C195.479 9.72 196.506 9.44 197.679 9.44C198.293 9.44 198.959 9.6 199.679 9.92C200.426 10.24 201.066 10.84 201.599 11.72C202.133 12.5733 202.399 13.8267 202.399 15.48V28H198.999V15.88C198.999 14.6267 198.773 13.6667 198.319 13C197.893 12.3067 197.093 11.96 195.919 11.96C194.773 11.96 193.453 12.7067 191.959 14.2V28H188.559ZM212.879 28.48C211.786 28.48 210.866 28.16 210.119 27.52C209.373 26.88 208.999 25.8 208.999 24.28V11.36L205.759 10.72V9.92H208.999V8.48L212.359 6.04V9.92H217.119V11.36H212.359V24.48C212.359 25.2267 212.506 25.8133 212.799 26.24C213.119 26.6667 213.706 26.88 214.559 26.88C214.933 26.88 215.346 26.8267 215.799 26.72C216.253 26.5867 216.693 26.44 217.119 26.28V27.4C216.533 27.6667 215.866 27.9067 215.119 28.12C214.399 28.36 213.653 28.48 212.879 28.48Z" fill="black"/>
</g>
<defs>
<filter id="filter0_b_1_1267" x="-3.3999" y="-3.31995" width="224.519" height="44.12" filterUnits="userSpaceOnUse" color-interpolation-filters="sRGB">
<feFlood flood-opacity="0" result="BackgroundImageFix"/>
<feGaussianBlur in="BackgroundImageFix" stdDeviation="2"/>
<feComposite in2="SourceAlpha" operator="in" result="effect1_backgroundBlur_1_1267"/>
<feBlend mode="normal" in="SourceGraphic" in2="effect1_backgroundBlur_1_1267" result="shape"/>
</filter>
</defs>
</svg>
