<svg width="25" height="25" viewBox="0 0 25 25" fill="none" xmlns="http://www.w3.org/2000/svg">
<g clip-path="url(#clip0_1_1257)">
<path d="M15.0895 12.7713C15.0895 11.4202 13.9852 10.3208 12.6279 10.3208C11.2708 10.3208 10.1665 11.4202 10.1665 12.7713C10.1665 14.1228 11.2708 15.222 12.6279 15.222C13.9852 15.222 15.0895 14.1228 15.0895 12.7713ZM18.7465 0.0150146H6.25363C2.8117 0.0150146 0.0114746 2.80306 0.0114746 6.22994V7.96159H9.1968C10.166 7.27419 11.3498 6.86811 12.6279 6.86811C13.906 6.86811 15.0899 7.27419 16.0592 7.96159H24.9886V6.22994C24.9886 2.80304 22.1884 0.0150146 18.7465 0.0150146ZM21.2745 5.92589C21.2745 6.30566 20.9625 6.61644 20.5809 6.61644H18.4379C18.0564 6.61644 17.7443 6.30566 17.7443 5.92589V3.79209C17.7443 3.41234 18.0563 3.10154 18.4379 3.10154H20.5809C20.9624 3.10154 21.2745 3.41229 21.2745 3.79209V5.92589ZM18.5573 12.7713C18.5573 16.0267 15.8972 18.6746 12.6279 18.6746C9.3584 18.6746 6.6986 16.0267 6.6986 12.7713C6.6986 11.8751 6.90135 11.0252 7.2619 10.2634H0.0114746V18.7699C0.0114746 22.1971 2.8117 24.9849 6.25363 24.9849H18.7465C22.1884 24.9849 24.9886 22.197 24.9886 18.7699V10.2634H17.994C18.3545 11.0252 18.5573 11.8751 18.5573 12.7713Z" fill="white"/>
</g>
<defs>
<clipPath id="clip0_1_1257">
<rect width="25" height="25" fill="white"/>
</clipPath>
</defs>
</svg>
