<svg width="9" height="15" viewBox="0 0 9 15" fill="none" xmlns="http://www.w3.org/2000/svg">
<path d="M8.65774 2.31666V0.925514C8.65774 0.804937 8.51936 0.738349 8.4259 0.812135L0.324109 7.14876C0.255273 7.20236 0.199574 7.271 0.161259 7.34944C0.122944 7.42788 0.103027 7.51405 0.103027 7.60137C0.103027 7.68869 0.122944 7.77486 0.161259 7.8533C0.199574 7.93174 0.255273 8.00038 0.324109 8.05399L8.4259 14.3906C8.52115 14.4644 8.65774 14.3978 8.65774 14.2772V12.8861C8.65774 12.7979 8.61641 12.7133 8.54811 12.6593L2.07818 7.60227L8.54811 2.54341C8.61641 2.48942 8.65774 2.40484 8.65774 2.31666V2.31666Z" fill="#E6E6E6"/>
</svg>
