<svg width="30" height="30" viewBox="0 0 30 30" fill="none" xmlns="http://www.w3.org/2000/svg">
<circle cx="15" cy="15" r="15" fill="#E6E6E6"/>
<path d="M8.28602 15.2161L16.9539 21.2169C17.0539 21.2861 17.1709 21.3266 17.2924 21.3341C17.4138 21.3416 17.5349 21.3157 17.6427 21.2592C17.7504 21.2028 17.8407 21.1179 17.9037 21.0138C17.9666 20.9098 18 20.7905 18 20.6688V8.6672C18.0001 8.5455 17.9669 8.4261 17.9039 8.32194C17.841 8.21778 17.7507 8.13283 17.643 8.0763C17.5352 8.01977 17.414 7.99381 17.2925 8.00124C17.1711 8.00868 17.0539 8.04921 16.9539 8.11846L8.28602 14.1193C8.19772 14.1809 8.1256 14.2629 8.0758 14.3584C8.026 14.4539 8 14.56 8 14.6677C8 14.7754 8.026 14.8815 8.0758 14.9769C8.1256 15.0724 8.19772 15.1545 8.28602 15.2161Z" fill="#2F861B"/>
</svg>
