<svg width="25" height="25" viewBox="0 0 25 25" fill="none" xmlns="http://www.w3.org/2000/svg">
<path d="M24.951 4.76041C24.0151 5.17249 23.0235 5.44451 22.0083 5.5677C23.0772 4.92525 23.8775 3.91774 24.2615 2.73124C23.2708 3.30936 22.1729 3.7302 21.0042 3.96457C20.2331 3.14002 19.2113 2.59314 18.0975 2.40884C16.9838 2.22455 15.8403 2.41317 14.8447 2.9454C13.8491 3.47763 13.0571 4.32369 12.5917 5.3522C12.1263 6.38071 12.0135 7.53412 12.2708 8.63332C8.01042 8.43228 4.23646 6.38541 1.70833 3.29374C1.24874 4.07479 1.00902 4.96564 1.01458 5.87186C1.01458 7.65311 1.92083 9.21874 3.29375 10.1385C2.48006 10.1126 1.68435 9.89263 0.972917 9.49686V9.55936C0.972455 10.7431 1.38153 11.8906 2.13074 12.807C2.87994 13.7235 3.92314 14.3526 5.08333 14.5875C4.33156 14.7889 3.54418 14.8192 2.77917 14.676C3.10846 15.6948 3.74757 16.5853 4.60731 17.2234C5.46705 17.8615 6.50453 18.2153 7.575 18.2354C5.76201 19.6583 3.52341 20.4305 1.21875 20.4281C0.8125 20.4281 0.407292 20.4042 0 20.3583C2.3497 21.8628 5.08178 22.6614 7.87187 22.6594C17.3021 22.6594 22.4531 14.851 22.4531 8.09166C22.4531 7.87291 22.4531 7.65416 22.4375 7.43541C23.4437 6.7113 24.3117 5.8123 25 4.78124L24.951 4.76041Z" fill="white"/>
</svg>
