<svg width="40" height="40" viewBox="0 0 40 40" fill="none" xmlns="http://www.w3.org/2000/svg">
<rect width="40" height="40" rx="20" fill="#27B8CA"/>
<path d="M20.5 20C21.4851 20 22.4298 19.6313 23.1264 18.9749C23.823 18.3185 24.2143 17.4283 24.2143 16.5C24.2143 15.5717 23.823 14.6815 23.1264 14.0251C22.4298 13.3687 21.4851 13 20.5 13C19.5149 13 18.5702 13.3687 17.8736 14.0251C17.177 14.6815 16.7857 15.5717 16.7857 16.5C16.7857 17.4283 17.177 18.3185 17.8736 18.9749C18.5702 19.6313 19.5149 20 20.5 20ZM19.1739 21.3125C16.3156 21.3125 14 23.4945 14 26.1879C14 26.6363 14.3859 27 14.8618 27H26.1382C26.6141 27 27 26.6363 27 26.1879C27 23.4945 24.6844 21.3125 21.8261 21.3125H19.1739Z" fill="white"/>
</svg>
