<svg width="12" height="11" viewBox="0 0 12 11" fill="none" xmlns="http://www.w3.org/2000/svg">
<g filter="url(#filter0_d_557_3323)">
<path d="M6 5.99951C5.85833 5.99951 5.73958 5.9516 5.64375 5.85576C5.54792 5.75993 5.5 5.64118 5.5 5.49951C5.5 5.35784 5.54792 5.2391 5.64375 5.14326C5.73958 5.04743 5.85833 4.99951 6 4.99951C6.14167 4.99951 6.26042 5.04743 6.35625 5.14326C6.45208 5.2391 6.5 5.35784 6.5 5.49951C6.5 5.64118 6.45208 5.75993 6.35625 5.85576C6.26042 5.9516 6.14167 5.99951 6 5.99951ZM4 5.99951C3.85833 5.99951 3.73958 5.9516 3.64375 5.85576C3.54792 5.75993 3.5 5.64118 3.5 5.49951C3.5 5.35784 3.54792 5.2391 3.64375 5.14326C3.73958 5.04743 3.85833 4.99951 4 4.99951C4.14167 4.99951 4.26042 5.04743 4.35625 5.14326C4.45208 5.2391 4.5 5.35784 4.5 5.49951C4.5 5.64118 4.45208 5.75993 4.35625 5.85576C4.26042 5.9516 4.14167 5.99951 4 5.99951ZM8 5.99951C7.85833 5.99951 7.73958 5.9516 7.64375 5.85576C7.54792 5.75993 7.5 5.64118 7.5 5.49951C7.5 5.35784 7.54792 5.2391 7.64375 5.14326C7.73958 5.04743 7.85833 4.99951 8 4.99951C8.14167 4.99951 8.26042 5.04743 8.35625 5.14326C8.45208 5.2391 8.5 5.35784 8.5 5.49951C8.5 5.64118 8.45208 5.75993 8.35625 5.85576C8.26042 5.9516 8.14167 5.99951 8 5.99951ZM6 7.99951C5.85833 7.99951 5.73958 7.9516 5.64375 7.85576C5.54792 7.75993 5.5 7.64118 5.5 7.49951C5.5 7.35784 5.54792 7.2391 5.64375 7.14326C5.73958 7.04743 5.85833 6.99951 6 6.99951C6.14167 6.99951 6.26042 7.04743 6.35625 7.14326C6.45208 7.2391 6.5 7.35784 6.5 7.49951C6.5 7.64118 6.45208 7.75993 6.35625 7.85576C6.26042 7.9516 6.14167 7.99951 6 7.99951ZM4 7.99951C3.85833 7.99951 3.73958 7.9516 3.64375 7.85576C3.54792 7.75993 3.5 7.64118 3.5 7.49951C3.5 7.35784 3.54792 7.2391 3.64375 7.14326C3.73958 7.04743 3.85833 6.99951 4 6.99951C4.14167 6.99951 4.26042 7.04743 4.35625 7.14326C4.45208 7.2391 4.5 7.35784 4.5 7.49951C4.5 7.64118 4.45208 7.75993 4.35625 7.85576C4.26042 7.9516 4.14167 7.99951 4 7.99951ZM8 7.99951C7.85833 7.99951 7.73958 7.9516 7.64375 7.85576C7.54792 7.75993 7.5 7.64118 7.5 7.49951C7.5 7.35784 7.54792 7.2391 7.64375 7.14326C7.73958 7.04743 7.85833 6.99951 8 6.99951C8.14167 6.99951 8.26042 7.04743 8.35625 7.14326C8.45208 7.2391 8.5 7.35784 8.5 7.49951C8.5 7.64118 8.45208 7.75993 8.35625 7.85576C8.26042 7.9516 8.14167 7.99951 8 7.99951ZM2.5 9.99951C2.225 9.99951 1.98958 9.9016 1.79375 9.70576C1.59792 9.50993 1.5 9.27451 1.5 8.99951V1.99951C1.5 1.72451 1.59792 1.4891 1.79375 1.29326C1.98958 1.09743 2.225 0.999512 2.5 0.999512H3V-0.000488281H4V0.999512H8V-0.000488281H9V0.999512H9.5C9.775 0.999512 10.0104 1.09743 10.2063 1.29326C10.4021 1.4891 10.5 1.72451 10.5 1.99951V8.99951C10.5 9.27451 10.4021 9.50993 10.2063 9.70576C10.0104 9.9016 9.775 9.99951 9.5 9.99951H2.5ZM2.5 8.99951H9.5V3.99951H2.5V8.99951Z" fill="#1A1A1A"/>
</g>
<defs>
<filter id="filter0_d_557_3323" x="-2.5" y="-0.000488281" width="17" height="18" filterUnits="userSpaceOnUse" color-interpolation-filters="sRGB">
<feFlood flood-opacity="0" result="BackgroundImageFix"/>
<feColorMatrix in="SourceAlpha" type="matrix" values="0 0 0 0 0 0 0 0 0 0 0 0 0 0 0 0 0 0 127 0" result="hardAlpha"/>
<feOffset dy="4"/>
<feGaussianBlur stdDeviation="2"/>
<feComposite in2="hardAlpha" operator="out"/>
<feColorMatrix type="matrix" values="0 0 0 0 0 0 0 0 0 0 0 0 0 0 0 0 0 0 0.25 0"/>
<feBlend mode="normal" in2="BackgroundImageFix" result="effect1_dropShadow_557_3323"/>
<feBlend mode="normal" in="SourceGraphic" in2="effect1_dropShadow_557_3323" result="shape"/>
</filter>
</defs>
</svg>
