<svg width="166" height="96" viewBox="0 0 166 96" fill="none" xmlns="http://www.w3.org/2000/svg">
<path d="M62.0496 26.0149L91.4806 22.3359L88.9898 10.1556L59.3785 1.13379L62.0496 26.0149ZM143.503 89.2618L144.136 76.2177L112.764 69.8869L115.045 84.4102L143.503 89.2618Z" fill="#A7A9AC"/>
<path d="M0.333374 33.7823V34.1772L35.6058 95.5001L115.046 84.4111L114.814 82.0682L66.7525 76.1138L62.0478 26.0154L0.333374 33.7823Z" fill="#9D9FA2"/>
<path d="M91.4801 22.3369L113.279 69.3033L115.045 84.4112L66.7643 76.1158L62.0492 26.0154L91.4801 22.3369Z" fill="#4D4D4F"/>
<path d="M163.657 0.5L88.1572 6.13608L88.9903 10.1565L146.493 27.647L144.126 77.0073L155.95 78.7335L165.488 0.5H163.657Z" fill="#C7C8CA"/>
<path d="M88.9908 10.1558L101.197 69.8876L144.124 77.0066L146.493 27.6463L88.9908 10.1558Z" fill="#6D6E71"/>
<path d="M129.792 31.7824V34.173H130.213V33.2299H130.531C130.751 33.2299 130.903 33.2582 130.988 33.305C131.134 33.3947 131.204 33.5765 131.204 33.8547V34.0445L131.219 34.1447L131.228 34.173H131.616L131.603 34.138L131.578 34.0162L131.573 33.8382V33.6681C131.572 33.5322 131.526 33.4005 131.443 33.2932C131.362 33.1704 131.228 33.0882 131.045 33.0617C131.191 33.0367 131.311 33.0003 131.388 32.9465C131.534 32.845 131.616 32.6915 131.616 32.4719C131.616 32.1706 131.499 31.9689 131.254 31.874C131.118 31.814 130.903 31.7824 130.61 31.7824H129.792ZM131.213 32.5068C131.213 32.6953 131.134 32.8185 130.971 32.8799C130.883 32.9201 130.758 32.9366 130.585 32.9366H130.213V32.0704H130.563C130.791 32.0704 130.958 32.1002 131.06 32.1621C131.166 32.2187 131.213 32.3368 131.213 32.5068ZM132.79 32.9782C132.79 32.3836 132.579 31.874 132.161 31.4508C131.746 31.0291 131.243 30.8142 130.653 30.8142C130.066 30.8142 129.565 31.0291 129.148 31.4508C128.738 31.874 128.529 32.3836 128.529 32.9782C128.529 33.5883 128.738 34.0979 129.148 34.5225C129.56 34.9494 130.063 35.1643 130.653 35.1643C131.243 35.1643 131.746 34.9494 132.161 34.5229C132.579 34.0979 132.79 33.5827 132.79 32.9782ZM130.648 31.1108C131.161 31.1108 131.586 31.2973 131.952 31.6657C132.127 31.8381 132.264 32.044 132.357 32.271C132.45 32.498 132.496 32.7415 132.492 32.9867C132.492 33.5062 132.307 33.9529 131.952 34.318C131.596 34.6864 131.161 34.871 130.648 34.871C130.143 34.871 129.701 34.6859 129.352 34.318C128.992 33.9529 128.814 33.5066 128.814 32.9867C128.814 32.4653 128.997 32.027 129.352 31.6657C129.712 31.2973 130.143 31.1108 130.648 31.1108ZM60.7363 44.7127C57.8389 41.8153 53.5686 39.9857 48.3821 39.9857C40.2237 39.9857 34.8837 46.0086 34.8837 54.7021C34.8837 63.6238 40.6799 69.4204 48.7637 69.4204C53.9502 69.4204 57.6854 67.8959 61.499 64.7667V74.7566C57.3024 77.2738 52.9589 78.1121 48.3821 78.1121C34.1989 78.1121 24.9722 68.5037 24.9722 54.7021C24.9722 40.824 34.5786 31.2888 48.3821 31.2888C52.9584 31.2888 57.0738 32.205 60.7363 34.3411V44.7127ZM95.9147 68.8858V77.3513H66.557V32.0544H95.4585V40.5175H76.0888V50.4328H93.8571V58.7429H76.0888V68.8858H95.9147ZM100.228 65.2248C103.658 67.819 107.472 69.8766 112.505 69.8766C116.393 69.8766 119.825 68.5037 119.825 64.7667C119.825 61.3361 117.003 60.0383 112.275 58.6673C103.2 56.1501 99.4643 52.3379 99.4643 44.7122C99.4643 36.0956 106.175 31.2888 114.564 31.2888C119.674 31.2907 123.407 32.5885 126.613 34.6457V44.1776C123.026 41.2821 119.367 39.5276 114.869 39.5276C110.98 39.5276 108.845 41.4337 108.845 44.2541C108.845 47.458 111.435 48.7543 116.698 50.2037C125.774 52.7965 129.281 56.8377 129.281 64.4635C129.281 73.9183 121.808 78.1135 112.505 78.1121C107.547 78.1121 103.123 76.7406 100.228 74.8331L100.228 65.2248Z" fill="white"/>
</svg>
