<svg width="78" height="78" viewBox="0 0 78 78" fill="none" xmlns="http://www.w3.org/2000/svg">
<rect width="78" height="78" rx="16" fill="black"/>
<path d="M31.054 42.1655H42.6925C43.1358 42.1655 43.5057 42.0143 43.802 41.712C44.098 41.41 44.246 41.0328 44.246 40.5805V35.95L48.423 40.127V29.681L44.246 33.8575V29.196C44.246 28.7527 44.098 28.3828 43.802 28.0865C43.5057 27.7905 43.1358 27.6425 42.6925 27.6425H31.054C30.6103 27.6425 30.2405 27.7905 29.9445 28.0865C29.6482 28.3828 29.5 28.7527 29.5 29.196V40.5805C29.5 41.0328 29.6482 41.41 29.9445 41.712C30.2405 42.0143 30.6103 42.1655 31.054 42.1655ZM21.7071 55.3699C21.0771 55.9999 20 55.5537 20 54.6628V22.8845C20 22.1002 20.2847 21.4233 20.854 20.854C21.4233 20.2847 22.1002 20 22.8845 20H55.1155C55.8998 20 56.5767 20.2847 57.146 20.854C57.7153 21.4233 58 22.1002 58 22.8845V47.1155C58 47.8998 57.7153 48.5767 57.146 49.146C56.5767 49.7153 55.8998 50 55.1155 50H27.077L21.7071 55.3699ZM26.0845 47.7305H55.1155C55.2692 47.7305 55.4102 47.6665 55.5385 47.5385C55.6665 47.4102 55.7305 47.2692 55.7305 47.1155V22.8845C55.7305 22.7308 55.6665 22.5898 55.5385 22.4615C55.4102 22.3335 55.2692 22.2695 55.1155 22.2695H22.8845C22.7308 22.2695 22.5898 22.3335 22.4615 22.4615C22.3335 22.5898 22.2695 22.7308 22.2695 22.8845V51.1403C22.2695 51.3665 22.5459 51.4764 22.7012 51.312L26.0845 47.7305Z" fill="white"/>
</svg>
