<svg width="243" height="64" viewBox="0 0 243 64" fill="none" xmlns="http://www.w3.org/2000/svg">
<g opacity="0.38">
<path d="M178.459 4.58456C178.459 2.05326 180.563 0 183.159 0H237.356C239.951 0 242.055 2.05326 242.055 4.58456V59.4154C242.055 61.9476 239.951 64 237.356 64H183.159C180.563 64 178.459 61.9476 178.459 59.4154V4.58456Z" fill="black"/>
<path fill-rule="evenodd" clip-rule="evenodd" d="M0.431396 53.6089H26.9721V44.8956H10.0361V11.6517H0.431396V53.6089Z" fill="black"/>
<path fill-rule="evenodd" clip-rule="evenodd" d="M40.4092 53.6089V24.7102H30.8036V53.6089H40.4092ZM35.6064 20.7644C38.9561 20.7644 41.041 18.5452 41.041 15.7702C40.9786 12.9353 38.9561 10.7786 35.6703 10.7786C32.3841 10.7786 30.2357 12.9353 30.2357 15.7702C30.2357 18.5452 32.3202 20.7644 35.5438 20.7644H35.6064Z" fill="black"/>
<path fill-rule="evenodd" clip-rule="evenodd" d="M44.8693 53.6089H54.4749V37.4701C54.4749 36.6064 54.5374 35.7436 54.7914 35.1261C55.4854 33.4012 57.0659 31.6139 59.7195 31.6139C63.1957 31.6139 64.5862 34.265 64.5862 38.1474V53.6089H74.191V37.0383C74.191 28.1616 69.4516 24.0312 63.1318 24.0312C57.9503 24.0312 55.675 26.9276 54.411 28.9005H54.4751V24.7102H44.8694C44.9956 27.4219 44.8693 53.6089 44.8693 53.6089Z" fill="black"/>
<path fill-rule="evenodd" clip-rule="evenodd" d="M87.7417 11.6517H78.1356V53.6089H87.7417V44.2397L90.1423 41.2175L97.6625 53.6089H109.479L96.8412 35.67L107.9 23.465H96.3359C96.3359 23.465 88.4369 34.3847 87.7417 35.6794V11.6517Z" fill="black"/>
<path fill-rule="evenodd" clip-rule="evenodd" d="M135.167 41.5544C135.293 40.8121 135.483 39.3883 135.483 37.7789C135.483 30.3081 131.691 22.7245 121.707 22.7245C111.027 22.7245 106.098 31.171 106.098 38.8316C106.098 48.3068 112.101 54.2246 122.591 54.2246C126.762 54.2246 130.617 53.6089 133.777 52.3142L132.512 45.9705C129.922 46.83 127.268 47.2593 123.982 47.2593C119.495 47.2593 115.578 45.4181 115.261 41.4929L135.167 41.5527V41.5544ZM115.199 35.056C115.451 32.5897 117.094 28.9518 121.202 28.9518C125.561 28.9518 126.573 32.8368 126.573 35.056H115.199Z" fill="black"/>
<path fill-rule="evenodd" clip-rule="evenodd" d="M159.193 11.6518V26.176H159.067C157.676 24.1433 154.769 22.787 150.915 22.787C143.521 22.787 137.012 28.7047 137.075 38.8137C137.075 48.1846 142.952 54.2871 150.283 54.2871C154.264 54.2871 158.055 52.5605 159.951 49.2314H160.141L160.52 53.609H169.052C168.925 51.5745 168.798 48.0606 168.798 44.6092V11.6518H159.193ZM159.193 40.2324C159.193 40.9713 159.13 41.7118 159.003 42.3276C158.435 44.9786 156.159 46.8275 153.38 46.8275C149.398 46.8275 146.807 43.6223 146.807 38.5674C146.807 33.8212 149.019 29.9995 153.442 29.9995C156.412 29.9995 158.498 32.033 159.067 34.5601C159.193 35.1159 159.193 35.7325 159.193 36.2867V40.2324Z" fill="black"/>
<path fill-rule="evenodd" clip-rule="evenodd" d="M197.737 53.5747V24.6751H188.131V53.5747H197.737ZM192.934 20.7294C196.284 20.7294 198.369 18.5102 198.369 15.7369C198.306 12.9011 196.284 10.7436 192.998 10.7436C189.712 10.7436 187.563 12.9011 187.563 15.7369C187.563 18.5102 189.648 20.7294 192.871 20.7294H192.934Z" fill="white"/>
<path fill-rule="evenodd" clip-rule="evenodd" d="M203.052 53.5747H212.658V37.436C212.658 36.5722 212.72 35.7094 212.974 35.0919C213.668 33.3662 215.249 31.5789 217.902 31.5789C221.378 31.5789 222.769 34.2291 222.769 38.1141V53.5747H232.373V37.0041C232.373 28.1274 227.634 23.997 221.315 23.997C216.133 23.997 213.858 26.8934 212.594 28.8663H212.658V24.6751H203.052C203.178 27.3869 203.052 53.5747 203.052 53.5747Z" fill="white"/>
</g>
</svg>
