<svg width="78" height="78" viewBox="0 0 78 78" fill="none" xmlns="http://www.w3.org/2000/svg">
<rect width="78" height="78" rx="16" fill="black"/>
<path d="M30.6667 18.1665C28.5833 18.1665 28.9681 23.2029 26.082 25.3782C23.9326 26.9982 20.0266 25.2786 18.4325 28.0016C17.9471 28.8308 18.1869 29.9262 18.6665 32.117L22.811 51.0509C23.6238 54.764 24.1229 59.2975 28.5833 59.8332H49.4167C53.8771 59.2975 54.3762 54.764 55.189 51.0509L59.3335 32.117C59.8131 29.9262 60.0529 28.8308 59.5675 28.0016C57.9733 25.2786 54.0673 26.9982 51.9179 25.3782C49.0319 23.2029 49.4167 18.1665 47.3333 18.1665" stroke="white" stroke-width="2" stroke-linecap="round" stroke-linejoin="round"/>
<path d="M39.0187 36.9165H39M39.0187 44.2082H39M39.0187 51.4998H39" stroke="white" stroke-width="2" stroke-linecap="round" stroke-linejoin="round"/>
<path d="M30.0921 18.4139C32.033 17.3238 34.711 20.127 36.0929 21.1746C37.981 22.6061 38.9252 23.3219 38.9946 24.2666C39.0019 24.3664 39.0019 24.4666 38.9946 24.5664C38.9252 25.5111 37.981 26.2269 36.0929 27.6584C34.711 28.706 32.033 31.5092 30.0921 30.4191C28.0804 29.2891 28.0804 19.5439 30.0921 18.4139Z" stroke="white" stroke-width="2"/>
<path d="M47.9079 18.4139C45.9671 17.3238 43.2889 20.127 41.9071 21.1746C40.0189 22.6061 39.0748 23.3219 39.0054 24.2666C38.9981 24.3664 38.9981 24.4666 39.0054 24.5664C39.0748 25.5111 40.0189 26.2269 41.9071 27.6584C43.2889 28.706 45.9671 31.5092 47.9079 30.4191C49.9196 29.2891 49.9196 19.5439 47.9079 18.4139Z" stroke="white" stroke-width="2"/>
</svg>
